<svg width="18" height="18" viewBox="0 0 18 18" fill="none" xmlns="http://www.w3.org/2000/svg">
<path d="M1.62741 9.14969C2.60704 5.60067 5.69861 3.9706 8.90015 4.05703C12.119 4.14393 15.3003 5.96591 16.39 9.1806L17.4555 8.81944C16.1814 5.06069 12.5076 3.02901 8.93051 2.93244C5.33608 2.8354 1.69077 4.69205 0.542969 8.85035L1.62741 9.14969Z" fill="#1F1F1F"/>
<path fill-rule="evenodd" clip-rule="evenodd" d="M8.65955 7.06035C6.4474 7.06035 4.6541 8.85365 4.6541 11.0658C4.6541 13.2779 6.4474 15.0712 8.65955 15.0712C10.8717 15.0712 12.665 13.2779 12.665 11.0658C12.665 8.85365 10.8717 7.06035 8.65955 7.06035ZM5.7791 11.0658C5.7791 9.47497 7.06872 8.18535 8.65955 8.18535C10.2504 8.18535 11.54 9.47497 11.54 11.0658C11.54 12.6566 10.2504 13.9462 8.65955 13.9462C7.06872 13.9462 5.7791 12.6566 5.7791 11.0658Z" fill="#1F1F1F"/>
</svg>
