<svg width="18" height="18" viewBox="0 0 18 18" fill="none" xmlns="http://www.w3.org/2000/svg">
<path d="M11.3137 5.45822H3.62988L5.91504 3.20684C6.14355 2.9817 6.14355 2.64399 5.91504 2.41885C5.68652 2.19372 5.34375 2.19372 5.11523 2.41885L1.85889 5.59894C1.74463 5.71151 1.6875 5.85222 1.6875 5.99293C1.6875 6.13364 1.74463 6.27435 1.85889 6.38692L5.08667 9.567C5.31519 9.79214 5.65796 9.79214 5.88647 9.567C6.11499 9.34186 6.11499 9.00416 5.88647 8.77902L3.65845 6.58392H11.3137C13.4561 6.58392 15.1699 8.27246 15.1699 10.3831C15.1699 12.4938 13.4561 14.1823 11.3137 14.1823H5.45801C5.1438 14.1823 4.88672 14.4356 4.88672 14.7452C4.88672 15.0548 5.1438 15.308 5.45801 15.308H11.3137C14.0845 15.308 16.3125 13.1129 16.3125 10.3831C16.3125 7.65333 14.0845 5.45822 11.3137 5.45822Z" fill="#333D47"/>
</svg>
