<svg width="16" height="16" viewBox="0 0 16 16" fill="none" xmlns="http://www.w3.org/2000/svg">
<path fill-rule="evenodd" clip-rule="evenodd" d="M9.96054 1.5L10.088 1.63155L13.1179 4.75994L13.2357 4.88158V5.05093V14.0817V14.5H12.8174H3.41826H3V14.0817V2.07567V1.66734L3.40821 1.65753L9.77745 1.5044L9.96054 1.5ZM3.83653 2.484V13.6635H12.3992V5.80173H9.78761H9.36934V5.38347V2.35098L3.83653 2.484ZM10.2059 2.95571L12.1521 4.9652H10.2059V2.95571ZM7.53268 11.0868L11.3169 7.17961L10.716 6.59763L7.23224 10.1946L5.88846 8.80719L5.28756 9.38918L6.93179 11.0868L7.23224 11.397L7.53268 11.0868Z" fill="#1F1F1F"/>
</svg>
