<svg width="16" height="16" viewBox="0 0 16 16" fill="none" xmlns="http://www.w3.org/2000/svg">
<path d="M6.73777 4.68737H3.66945V3.85507H6.73777V4.68737Z" fill="#1F1F1F"/>
<path d="M3.66945 6.64987H11.1211V5.81757H3.66945V6.64987Z" fill="#1F1F1F"/>
<path d="M11.1211 8.61236H3.66945V7.78006H11.1211V8.61236Z" fill="#1F1F1F"/>
<path d="M3.66945 10.575H7.1761V9.74265H3.66945V10.575Z" fill="#1F1F1F"/>
<path fill-rule="evenodd" clip-rule="evenodd" d="M1.5 1.5V11.0694C1.5 12.1283 2.03349 13.1135 2.93137 13.7585C3.5119 14.1751 4.2136 14.4266 4.94414 14.4862C4.98169 14.4952 5.02153 14.5 5.06339 14.5H12.6136L12.678 14.4784C13.2829 14.2755 13.7559 13.9352 14.0442 13.4351C14.3298 12.9397 14.4037 12.3405 14.3172 11.6751L14.27 11.3127H13.2906V1.5H1.5ZM12.4583 11.3127V2.3323H2.3323V11.0694C2.3323 11.8395 2.7193 12.5813 3.41695 13.0825C3.80136 13.3583 4.25993 13.545 4.74766 13.6244C4.78443 13.594 4.82677 13.5679 4.87456 13.5477L4.87887 13.5458C5.28408 13.3793 5.57495 13.166 5.75841 12.897C5.93846 12.6331 6.04306 12.2746 6.00293 11.7613L5.96786 11.3127H12.4583ZM6.44601 13.366C6.68079 13.0218 6.81324 12.615 6.83904 12.145H13.5188C13.5235 12.512 13.4508 12.7979 13.3232 13.0194C13.1664 13.2912 12.8993 13.5138 12.4752 13.6677H6.19839C6.28866 13.5754 6.37163 13.4751 6.44601 13.366Z" fill="#1F1F1F"/>
<path d="M6.73777 4.68737H3.66945V3.85507H6.73777V4.68737Z" stroke="#1F1F1F"/>
<path d="M3.66945 6.64987H11.1211V5.81757H3.66945V6.64987Z" stroke="#1F1F1F"/>
<path d="M11.1211 8.61236H3.66945V7.78006H11.1211V8.61236Z" stroke="#1F1F1F"/>
<path d="M3.66945 10.575H7.1761V9.74265H3.66945V10.575Z" stroke="#1F1F1F"/>
<path fill-rule="evenodd" clip-rule="evenodd" d="M1.5 1.5V11.0694C1.5 12.1283 2.03349 13.1135 2.93137 13.7585C3.5119 14.1751 4.2136 14.4266 4.94414 14.4862C4.98169 14.4952 5.02153 14.5 5.06339 14.5H12.6136L12.678 14.4784C13.2829 14.2755 13.7559 13.9352 14.0442 13.4351C14.3298 12.9397 14.4037 12.3405 14.3172 11.6751L14.27 11.3127H13.2906V1.5H1.5ZM12.4583 11.3127V2.3323H2.3323V11.0694C2.3323 11.8395 2.7193 12.5813 3.41695 13.0825C3.80136 13.3583 4.25993 13.545 4.74766 13.6244C4.78443 13.594 4.82677 13.5679 4.87456 13.5477L4.87887 13.5458C5.28408 13.3793 5.57495 13.166 5.75841 12.897C5.93846 12.6331 6.04306 12.2746 6.00293 11.7613L5.96786 11.3127H12.4583ZM6.44601 13.366C6.68079 13.0218 6.81324 12.615 6.83904 12.145H13.5188C13.5235 12.512 13.4508 12.7979 13.3232 13.0194C13.1664 13.2912 12.8993 13.5138 12.4752 13.6677H6.19839C6.28866 13.5754 6.37163 13.4751 6.44601 13.366Z" stroke="#1F1F1F"/>
</svg>
