<svg width="18" height="18" viewBox="0 0 18 18" fill="none" xmlns="http://www.w3.org/2000/svg">
<path d="M15.1875 8.80706C15.1875 8.65788 15.2468 8.5148 15.3523 8.40931C15.4577 8.30383 15.6008 8.24456 15.75 8.24456C15.8992 8.24456 16.0423 8.30383 16.1477 8.40931C16.2532 8.5148 16.3125 8.65788 16.3125 8.80706V13.5C16.3125 14.2459 16.0162 14.9613 15.4887 15.4887C14.9613 16.0162 14.2459 16.3125 13.5 16.3125H4.5C3.75408 16.3125 3.03871 16.0162 2.51126 15.4887C1.98382 14.9613 1.6875 14.2459 1.6875 13.5V4.5C1.6875 3.75408 1.98382 3.03871 2.51126 2.51126C3.03871 1.98382 3.75408 1.6875 4.5 1.6875H9.85388C10.0031 1.6875 10.1461 1.74676 10.2516 1.85225C10.3571 1.95774 10.4164 2.10082 10.4164 2.25C10.4164 2.39918 10.3571 2.54226 10.2516 2.64775C10.1461 2.75324 10.0031 2.8125 9.85388 2.8125H4.5C4.05245 2.8125 3.62322 2.99029 3.30676 3.30676C2.99029 3.62322 2.8125 4.05245 2.8125 4.5V13.5C2.8125 13.9476 2.99029 14.3768 3.30676 14.6932C3.62322 15.0097 4.05245 15.1875 4.5 15.1875H13.5C13.9476 15.1875 14.3768 15.0097 14.6932 14.6932C15.0097 14.3768 15.1875 13.9476 15.1875 13.5V8.80706ZM14.9445 2.601C15.0472 2.49584 15.1869 2.43504 15.3339 2.43161C15.4808 2.42818 15.6232 2.4824 15.7307 2.58267C15.8382 2.68293 15.9021 2.82127 15.9089 2.96809C15.9156 3.1149 15.8647 3.25854 15.7669 3.36825L9.63 9.95063C9.57962 10.0047 9.51909 10.0482 9.45187 10.0789C9.38465 10.1095 9.31205 10.1266 9.23822 10.1292C9.16439 10.1318 9.09077 10.1198 9.02157 10.094C8.95237 10.0681 8.88894 10.0288 8.83491 9.97847C8.78087 9.92809 8.73729 9.86756 8.70665 9.80034C8.676 9.73312 8.6589 9.66052 8.65632 9.58669C8.65373 9.51286 8.66571 9.43924 8.69158 9.37004C8.71744 9.30084 8.75668 9.23741 8.80706 9.18338L14.9445 2.601Z" fill="#1F1F1F"/>
</svg>
