<svg width="18" height="18" viewBox="0 0 18 18" fill="none" xmlns="http://www.w3.org/2000/svg">
<path fill-rule="evenodd" clip-rule="evenodd" d="M2.14113 9C2.14113 5.21195 5.21195 2.14113 9 2.14113C12.788 2.14113 15.8589 5.21195 15.8589 9C15.8589 12.788 12.788 15.8589 9 15.8589C5.21195 15.8589 2.14113 12.788 2.14113 9ZM9 1.125C4.65076 1.125 1.125 4.65076 1.125 9C1.125 13.3492 4.65076 16.875 9 16.875C13.3492 16.875 16.875 13.3492 16.875 9C16.875 4.65076 13.3492 1.125 9 1.125ZM8.74597 4.68145V9.25403V9.43798L8.86373 9.57929L11.404 12.6277L12.1847 11.9772L9.7621 9.07009V4.68145H8.74597Z" fill="#333D47"/>
</svg>
