<svg width="16" height="16" viewBox="0 0 16 16" fill="none" xmlns="http://www.w3.org/2000/svg">
<path d="M7.97908 4.92218H4.55691V5.75448H7.97908V4.92218Z" fill="#1F1F1F"/>
<path d="M4.55691 7.58389H11.021V8.41619H4.55691V7.58389Z" fill="#1F1F1F"/>
<path d="M11.021 10.2455H4.55691V11.0778H11.021V10.2455Z" fill="#1F1F1F"/>
<path fill-rule="evenodd" clip-rule="evenodd" d="M3 1.5H10.0713L13.3383 5.07412V14.5H3V1.5ZM3.8323 2.3323V13.6677H12.506V5.75447H9.46418V2.3323H3.8323ZM10.2965 2.97999L12.0718 4.92216H10.2965V2.97999Z" fill="#1F1F1F"/>
<path d="M7.97908 4.92218H4.55691V5.75448H7.97908V4.92218Z" stroke="#1F1F1F"/>
<path d="M4.55691 7.58389H11.021V8.41619H4.55691V7.58389Z" stroke="#1F1F1F"/>
<path d="M11.021 10.2455H4.55691V11.0778H11.021V10.2455Z" stroke="#1F1F1F"/>
<path fill-rule="evenodd" clip-rule="evenodd" d="M3 1.5H10.0713L13.3383 5.07412V14.5H3V1.5ZM3.8323 2.3323V13.6677H12.506V5.75447H9.46418V2.3323H3.8323ZM10.2965 2.97999L12.0718 4.92216H10.2965V2.97999Z" stroke="#1F1F1F"/>
</svg>
