<svg width="18" height="18" viewBox="0 0 18 18" fill="none" xmlns="http://www.w3.org/2000/svg">
<path fill-rule="evenodd" clip-rule="evenodd" d="M12.1616 3.98245C12.1616 3.27575 12.8063 2.62829 13.6982 2.62829C14.59 2.62829 15.2348 3.27575 15.2348 3.98245C15.2348 4.68914 14.59 5.33661 13.6982 5.33661C12.8063 5.33661 12.1616 4.68914 12.1616 3.98245ZM11.272 4.4529H2.62829V12.339C2.62829 13.2416 3.07509 14.1078 3.87509 14.6912C4.31576 15.0122 4.8409 15.2292 5.39904 15.3215C5.44085 15.2861 5.48927 15.2558 5.54429 15.2321L5.5492 15.23L5.54922 15.23C6.01289 15.0366 6.34741 14.7882 6.55914 14.473C6.7675 14.1629 6.88811 13.7418 6.84187 13.1413L6.80287 12.6348H7.31087H13.2279V6.2355C12.8956 6.17571 12.5832 6.0538 12.3084 5.88168L7.49188 10.2603L6.85904 9.56417L11.6204 5.23566C11.4559 5.00277 11.3355 4.73899 11.272 4.4529ZM14.1686 12.6348V6.23546C15.2846 6.03463 16.1756 5.13316 16.1756 3.98245C16.1756 2.6738 15.0232 1.6875 13.6982 1.6875C12.5373 1.6875 11.509 2.44452 11.272 3.51211H2.15789H1.6875V3.9825V12.339C1.6875 13.5619 2.29437 14.7028 3.32075 15.4513L3.32092 15.4514C3.98464 15.935 4.78741 16.2273 5.62393 16.2965C5.66677 16.3068 5.71235 16.3124 5.76044 16.3124H5.98638C5.9947 16.3125 6.00302 16.3125 6.01135 16.3125V16.3124H13.8236H13.9015L13.9752 16.2873C14.668 16.0515 15.2073 15.6564 15.5353 15.0788C15.8599 14.5073 15.9443 13.8156 15.8456 13.0454L15.793 12.6348H15.379H14.1686ZM7.34006 14.9976C7.60903 14.5973 7.75998 14.1238 7.78774 13.5756H14.9433C14.9506 14.0112 14.8667 14.351 14.7172 14.6142C14.5359 14.9336 14.2282 15.1929 13.7429 15.3716H7.03348C7.14591 15.2579 7.2487 15.1336 7.34006 14.9976Z" fill="#333D47"/>
</svg>
