<svg width="18" height="18" viewBox="0 0 18 18" fill="none" xmlns="http://www.w3.org/2000/svg">
<path d="M11.1295 1.6875L2.25 3.27811V14.7216L11.1295 16.3125V1.6875ZM6.57883 9.47224L5.65649 11.2713L4.59214 11.2045L5.93936 9.00479L4.73415 6.60773L5.79764 6.54092L6.50739 8.33897H6.64825L7.42887 6.40729L8.56379 6.34125L7.14514 8.87194L8.56466 11.4705L7.42974 11.4037L6.57883 9.47224Z" fill="#23B08D"/>
<path d="M11.1295 3.25446H15.8304V15.7902H11.1295V3.25446Z" fill="#E5E7E6"/>
<path d="M11.1295 5.86607H14.7857V7.00759H11.1295V5.86607ZM11.1295 8.27095H14.7857V9.41246H11.1295V8.27095ZM11.1295 10.9924H14.7857V12.1339H11.1295V10.9924Z" fill="white"/>
</svg>
