<svg width="18" height="18" viewBox="0 0 18 18" fill="none" xmlns="http://www.w3.org/2000/svg">
<path d="M10.9335 16.3125C10.7872 16.3125 10.65 16.2331 10.5778 16.1031L7.48298 10.517L1.89643 7.4225C1.7574 7.34486 1.67615 7.1932 1.68879 7.03432C1.70143 6.87545 1.80615 6.73823 1.95602 6.68407L15.7689 1.71188C15.917 1.65771 16.0831 1.69563 16.1932 1.80756C16.3052 1.9195 16.3413 2.0838 16.2889 2.23184L11.3163 16.0435C11.2621 16.1933 11.1249 16.2981 10.966 16.3107C10.9552 16.3125 10.9443 16.3125 10.9335 16.3125ZM3.07369 7.14626L7.97952 9.86345C8.04633 9.89956 8.1005 9.95553 8.13841 10.0223L10.8559 14.9277L15.2326 2.77167L3.07369 7.14626Z" fill="#1F1F1F"/>
<path d="M7.43304 9.9805L15.726 1.6875L16.3125 2.274L8.01952 10.567L7.43304 9.9805Z" fill="#1F1F1F"/>
<path d="M10.9335 16.3125C10.7872 16.3125 10.65 16.2331 10.5778 16.1031L7.48298 10.517L1.89643 7.4225C1.7574 7.34486 1.67615 7.1932 1.68879 7.03432C1.70143 6.87545 1.80615 6.73823 1.95602 6.68407L15.7689 1.71188C15.917 1.65771 16.0831 1.69563 16.1932 1.80756C16.3052 1.9195 16.3413 2.0838 16.2889 2.23184L11.3163 16.0435C11.2621 16.1933 11.1249 16.2981 10.966 16.3107C10.9552 16.3125 10.9443 16.3125 10.9335 16.3125ZM3.07369 7.14626L7.97952 9.86345C8.04633 9.89956 8.1005 9.95553 8.13841 10.0223L10.8559 14.9277L15.2326 2.77167L3.07369 7.14626Z" stroke="#333D47" stroke-width="0.2"/>
<path d="M7.43304 9.9805L15.726 1.6875L16.3125 2.274L8.01952 10.567L7.43304 9.9805Z" stroke="#333D47" stroke-width="0.2"/>
</svg>
