<svg width="18" height="18" viewBox="0 0 18 18" fill="none" xmlns="http://www.w3.org/2000/svg">
<path d="M11.9097 12.2305H11.3198C11.3007 12.2305 11.2854 12.2458 11.2854 12.2649V12.5245C11.2854 12.5436 11.2701 12.5589 11.251 12.5589H10.3308C10.3117 12.5589 10.2964 12.5742 10.2964 12.5932V13.1832C10.2964 13.2023 10.3117 13.2176 10.3308 13.2176H11.251C11.2701 13.2176 11.2854 13.2329 11.2854 13.2519V13.5116C11.2854 13.5307 11.3007 13.546 11.3198 13.546H11.9097C11.9288 13.546 11.9441 13.5307 11.9441 13.5116V13.2519C11.9441 13.2329 11.9594 13.2176 11.9785 13.2176H15.9268C15.9459 13.2176 15.9612 13.2023 15.9612 13.1832V12.5932C15.9612 12.5742 15.9459 12.5589 15.9268 12.5589H11.9804C11.9613 12.5589 11.946 12.5436 11.946 12.5245V12.2649C11.9441 12.2477 11.9288 12.2305 11.9097 12.2305ZM15.123 14.0462H14.5331C14.514 14.0462 14.4987 14.0615 14.4987 14.0806V14.3402C14.4987 14.3593 14.4834 14.3746 14.4643 14.3746H10.3308C10.3117 14.3746 10.2964 14.3899 10.2964 14.409V14.9989C10.2964 15.018 10.3117 15.0333 10.3308 15.0333H14.4643C14.4834 15.0333 14.4987 15.0486 14.4987 15.0677V15.3273C14.4987 15.3464 14.514 15.3617 14.5331 15.3617H15.123C15.1421 15.3617 15.1574 15.3464 15.1574 15.3273V15.0677C15.1574 15.0486 15.1727 15.0333 15.1918 15.0333H15.9249C15.944 15.0333 15.9593 15.018 15.9593 14.9989V14.409C15.9593 14.3899 15.944 14.3746 15.9249 14.3746H15.1918C15.1727 14.3746 15.1574 14.3593 15.1574 14.3402V14.0806C15.1574 14.0615 15.1421 14.0462 15.123 14.0462ZM15.123 10.4167H14.5331C14.514 10.4167 14.4987 10.432 14.4987 10.451V10.7107C14.4987 10.7298 14.4834 10.7451 14.4643 10.7451H10.3308C10.3117 10.7451 10.2964 10.7603 10.2964 10.7794V11.3694C10.2964 11.3885 10.3117 11.4038 10.3308 11.4038H14.4643C14.4834 11.4038 14.4987 11.419 14.4987 11.4381V11.6978C14.4987 11.7169 14.514 11.7322 14.5331 11.7322H15.123C15.1421 11.7322 15.1574 11.7169 15.1574 11.6978V11.4381C15.1574 11.419 15.1727 11.4038 15.1918 11.4038H15.9249C15.944 11.4038 15.9593 11.3885 15.9593 11.3694V10.7794C15.9593 10.7603 15.944 10.7451 15.9249 10.7451H15.1918C15.1727 10.7451 15.1574 10.7298 15.1574 10.7107V10.451C15.1574 10.432 15.1421 10.4167 15.123 10.4167ZM15.4151 2.60395V7.36185H10.6572V2.60395H15.4151ZM16.2972 1.6875H9.77516C9.75607 1.6875 9.7408 1.70277 9.7408 1.72187V8.24393C9.7408 8.26302 9.75607 8.2783 9.77516 8.2783H16.2972C16.3163 8.2783 16.3316 8.26302 16.3316 8.24393V1.72187C16.3316 1.70277 16.3163 1.6875 16.2972 1.6875ZM7.36185 2.60395V7.36185H2.60395V2.60395H7.36185ZM8.24393 1.6875H1.72187C1.70277 1.6875 1.6875 1.70277 1.6875 1.72187V8.24393C1.6875 8.26302 1.70277 8.2783 1.72187 8.2783H8.24393C8.26302 8.2783 8.2783 8.26302 8.2783 8.24393V1.72187C8.2783 1.70277 8.26302 1.6875 8.24393 1.6875ZM7.36185 10.6382V15.3961H2.60395V10.6382H7.36185ZM8.24393 9.7217H1.72187C1.70277 9.7217 1.6875 9.73698 1.6875 9.75607V16.2781C1.6875 16.2972 1.70277 16.3125 1.72187 16.3125H8.24393C8.26302 16.3125 8.2783 16.2972 8.2783 16.2781V9.75607C8.2783 9.73698 8.26302 9.7217 8.24393 9.7217Z" fill="#1F1F1F"/>
</svg>
