<svg width="18" height="18" viewBox="0 0 18 18" fill="none" xmlns="http://www.w3.org/2000/svg">
<path d="M8.22305 11.5348C8.13164 11.4434 8.00859 11.3906 7.875 11.3906C7.74492 11.3906 7.61836 11.4398 7.52695 11.5348C7.43555 11.6262 7.38281 11.7492 7.38281 11.8828C7.38281 12.0129 7.43203 12.1395 7.52695 12.2309L7.53047 12.2344L8.97539 13.6441H5.83594C5.11875 13.6441 4.65469 13.3805 4.37344 12.818C4.07812 12.2203 4.04297 11.359 4.04297 10.7613V6.00469C4.57031 5.90625 5.05195 5.63555 5.41406 5.23477C5.82188 4.78125 6.04688 4.19766 6.04688 3.58594C6.04688 2.22891 4.94297 1.125 3.58594 1.125C2.22891 1.125 1.125 2.22891 1.125 3.58594C1.125 4.18359 1.34297 4.75664 1.7332 5.20664C2.08125 5.60391 2.54531 5.87812 3.05859 5.99062V10.7578C3.05859 11.2746 3.05859 12.2379 3.38906 13.0535C3.80742 14.0836 4.65469 14.625 5.83594 14.625H8.98945L7.59375 16.0383C7.40391 16.2281 7.40391 16.541 7.59375 16.7344L7.59727 16.7379C7.69219 16.8258 7.81523 16.875 7.9418 16.875C8.07539 16.875 8.19844 16.8258 8.28984 16.7309L10.3148 14.7129C10.4625 14.5652 10.5434 14.3684 10.5434 14.1609C10.5434 13.9535 10.4625 13.7637 10.3148 13.616L8.22305 11.5348ZM3.58594 5.0625C2.77031 5.0625 2.10938 4.40156 2.10938 3.58594C2.10938 2.77031 2.77031 2.10938 3.58594 2.10938C4.40156 2.10938 5.0625 2.77031 5.0625 3.58594C5.0625 4.40156 4.40156 5.0625 3.58594 5.0625ZM14.9414 12.0094V7.24219C14.9414 6.72539 14.9414 5.76211 14.6109 4.94648C14.1926 3.91992 13.3453 3.375 12.1641 3.375H9.01055L10.4062 1.96172C10.5961 1.77187 10.5961 1.45898 10.4062 1.26562L10.4027 1.26211C10.3078 1.17422 10.1848 1.125 10.0582 1.125C9.92461 1.125 9.80156 1.17422 9.71016 1.26914L7.68516 3.28711C7.5375 3.43477 7.45664 3.63164 7.45664 3.83906C7.45664 4.04648 7.5375 4.23633 7.68516 4.38398L9.78047 6.47227C9.87188 6.56367 9.99492 6.61641 10.1285 6.61641C10.2586 6.61641 10.3852 6.56719 10.4766 6.47227C10.568 6.38086 10.6207 6.25781 10.6207 6.12422C10.6207 5.99414 10.5715 5.86758 10.4766 5.77617L10.473 5.77266L9.02461 4.35938H12.1641C12.8813 4.35938 13.3453 4.62305 13.6266 5.18555C13.9219 5.7832 13.957 6.64453 13.957 7.24219V11.9953C13.4297 12.0938 12.948 12.3645 12.5859 12.7652C12.1781 13.2188 11.9531 13.8023 11.9531 14.4141C11.9531 15.7711 13.057 16.875 14.4141 16.875C15.7711 16.875 16.875 15.7711 16.875 14.4141C16.875 13.8164 16.657 13.2434 16.2668 12.7934C15.9188 12.3961 15.4512 12.1219 14.9414 12.0094ZM14.4141 15.8906C13.5984 15.8906 12.9375 15.2297 12.9375 14.4141C12.9375 13.5984 13.5984 12.9375 14.4141 12.9375C15.2297 12.9375 15.8906 13.5984 15.8906 14.4141C15.8906 15.2297 15.2297 15.8906 14.4141 15.8906Z" fill="#333D47"/>
</svg>
