<svg width="63" height="63" viewBox="0 0 63 63" fill="none" xmlns="http://www.w3.org/2000/svg">
<circle cx="31.9672" cy="31.5" r="31" fill="#F7C926"/>
<path d="M28.467 34.1591C28.3571 32.8592 28.445 29.7981 29.6753 27.9526C30.9056 26.1071 32.6412 25.243 33.3553 25.0416C34.4904 24.8402 37.1231 24.5582 38.5731 25.0416C40.0231 25.5249 41.4841 27.1837 42.0334 27.9526C42.4545 28.7765 43.3076 30.8526 43.3516 32.5663C43.3955 34.2799 43.3699 35.9899 43.3516 36.6307" stroke="white"/>
<rect x="33.6845" y="23.6686" width="4.61368" height="0.768946" rx="0.384473" stroke="white" stroke-width="0.768946"/>
<path d="M26.1597 35.7519H29.8396L34.4533 37.3997H38.298C38.591 37.4546 39.1768 37.7732 39.1768 38.608C39.1768 39.4429 38.1516 39.7981 37.6389 39.8713H33.245C32.952 39.9628 32.3442 40.2777 32.2563 40.805M34.4533 23.3389L32.6408 19.9885L34.4533 19.2196L35.7715 19.9885L37.6389 19.2196L39.1768 19.9885L37.6389 23.3389H34.4533Z" stroke="white"/>
<path d="M21.3817 43.0569H26.0503V34.7084H21.3817" stroke="white"/>
<path d="M26.2152 42.1782H28.0827L35.113 44.6498C35.2046 44.7779 35.5524 44.9574 36.2115 44.6498C36.8706 44.3422 43.0771 40.8966 46.098 39.2122C46.336 38.9193 46.6692 38.1686 46.098 37.5096C45.5268 36.8505 44.5052 37.2349 44.0658 37.5096L38.9028 39.2122" stroke="white"/>
<rect x="34.7913" y="26.5339" width="1.21905" height="1.21905" fill="white"/>
<rect x="34.7913" y="35.0672" width="1.21905" height="1.21905" fill="white"/>
<path d="M35.6273 31.0329L35.7276 30.8039C35.3716 30.6481 35.1215 30.5128 34.9658 30.3994C34.8157 30.2848 34.7217 30.1706 34.6688 30.06C34.6153 29.9448 34.5814 29.7817 34.5814 29.5584C34.5814 29.2776 34.6639 29.0886 34.8042 28.9575C34.9468 28.8243 35.1584 28.7426 35.4723 28.7426C35.8788 28.7426 36.3062 28.853 36.7572 29.0848L37.0265 29.2232L37.1115 28.9327L37.3222 28.2124L37.3791 28.0176L37.2002 27.9218C36.6771 27.6419 36.1049 27.5029 35.4882 27.5029C34.8824 27.5029 34.3706 27.6821 33.979 28.0596C33.5851 28.4393 33.3977 28.9452 33.3977 29.5486C33.3977 30.1068 33.521 30.5854 33.7897 30.9636L33.7897 30.9636L33.7905 30.9647C34.0595 31.3389 34.4905 31.6429 35.0539 31.8897L35.0543 31.8898C35.4362 32.0564 35.7053 32.1992 35.8726 32.3174L35.8739 32.3183C36.0407 32.4346 36.1428 32.5512 36.1987 32.6631L36.1987 32.6631L36.2012 32.6679C36.2583 32.7762 36.2956 32.9334 36.2956 33.1547C36.2956 33.4729 36.2008 33.6924 36.0346 33.8465C35.87 33.996 35.602 34.0921 35.1861 34.0921C34.9323 34.0921 34.6747 34.0593 34.4128 33.9927C34.1489 33.9257 33.9073 33.8348 33.6869 33.721L33.3221 33.5324V33.9431V34.7412V34.8844L33.4458 34.9569C33.8716 35.2064 34.4529 35.3172 35.1622 35.3172C35.8456 35.3172 36.4163 35.1277 36.8444 34.7234C37.2764 34.3154 37.4793 33.755 37.4793 33.0768C37.4793 32.551 37.3544 32.0981 37.0833 31.7392C36.8166 31.3826 36.3505 31.0758 35.7273 30.8038L35.6273 31.0329ZM35.6273 31.0329C36.2368 31.2989 36.6555 31.5844 36.8835 31.8894L34.4427 30.1667C34.5169 30.3224 34.6415 30.4668 34.8164 30.5998C34.9939 30.7296 35.2642 30.8739 35.6273 31.0329ZM36.0169 32.1133C35.8287 31.9802 35.5412 31.8294 35.1543 31.6607C34.6136 31.4238 34.2267 31.1432 33.9935 30.8188C33.763 30.4944 33.6477 30.071 33.6477 29.5486C33.6477 29.0004 33.816 28.564 34.1525 28.2396C34.4891 27.9151 34.9343 27.7529 35.4882 27.7529C36.0659 27.7529 36.5972 27.8827 37.0822 28.1422L36.0169 32.1133Z" fill="white" stroke="white" stroke-width="0.5"/>
<line x1="0.75" y1="-0.75" x2="8.21577" y2="-0.75" transform="matrix(0.704434 -0.70977 0.704434 0.70977 19.5538 31.5037)" stroke="white" stroke-width="1.5" stroke-linecap="round"/>
<path d="M19.5539 27.4582C20.024 27.4582 20.3868 27.1704 20.6088 26.8347C20.8335 26.4952 20.9561 26.0553 20.9561 25.5946C20.9561 25.1338 20.8335 24.6939 20.6088 24.3544C20.3868 24.0188 20.024 23.7309 19.5539 23.7309C19.0838 23.7309 18.721 24.0188 18.4989 24.3544C18.2743 24.6939 18.1516 25.1338 18.1516 25.5946C18.1516 26.0553 18.2743 26.4952 18.4989 26.8347C18.721 27.1704 19.0838 27.4582 19.5539 27.4582Z" stroke="white"/>
<path d="M24.9673 32.0037C25.4374 32.0037 25.8002 31.7158 26.0223 31.3802C26.2469 31.0407 26.3696 30.6008 26.3696 30.14C26.3696 29.6793 26.2469 29.2394 26.0223 28.8999C25.8002 28.5643 25.4374 28.2764 24.9673 28.2764C24.4972 28.2764 24.1344 28.5643 23.9123 28.8999C23.6877 29.2394 23.5651 29.6793 23.5651 30.14C23.5651 30.6008 23.6877 31.0407 23.9123 31.3802C24.1344 31.7158 24.4972 32.0037 24.9673 32.0037Z" stroke="white"/>
</svg>
