<svg width="63" height="63" viewBox="0 0 63 63" fill="none" xmlns="http://www.w3.org/2000/svg">
<circle cx="31.9672" cy="31.5" r="31" fill="#D31145"/>
<path d="M26.467 32.1591C26.3571 30.8592 26.445 27.7981 27.6753 25.9526C28.9056 24.1071 30.6412 23.243 31.3553 23.0416C32.4904 22.8402 35.1231 22.5582 36.5731 23.0416C38.0231 23.5249 39.4841 25.1837 40.0334 25.9526C40.4545 26.7765 41.3076 28.8526 41.3516 30.5663C41.3955 32.2799 41.3699 33.9899 41.3516 34.6307" stroke="white"/>
<rect x="31.6845" y="21.6686" width="4.61368" height="0.768946" rx="0.384473" stroke="white" stroke-width="0.768946"/>
<path d="M24.1597 33.7519H27.8396L32.4533 35.3997H36.298C36.591 35.4546 37.1768 35.7732 37.1768 36.608C37.1768 37.4429 36.1516 37.7981 35.6389 37.8713H31.245C30.952 37.9628 30.3442 38.2777 30.2563 38.805M32.4533 21.3389L30.6408 17.9885L32.4533 17.2196L33.7715 17.9885L35.6389 17.2196L37.1768 17.9885L35.6389 21.3389H32.4533Z" stroke="white"/>
<path d="M19.3817 41.0569H24.0503V32.7084H19.3817" stroke="white"/>
<path d="M24.2152 40.1782H26.0827L33.113 42.6498C33.2046 42.7779 33.5524 42.9574 34.2115 42.6498C34.8706 42.3422 41.0771 38.8966 44.098 37.2122C44.336 36.9193 44.6692 36.1686 44.098 35.5096C43.5268 34.8505 42.5052 35.2349 42.0658 35.5096L36.9028 37.2122" stroke="white"/>
<rect x="32.7913" y="24.5339" width="1.21905" height="1.21905" fill="white"/>
<rect x="32.7913" y="33.0672" width="1.21905" height="1.21905" fill="white"/>
<path d="M33.6273 29.0329L33.7276 28.8039C33.3716 28.6481 33.1215 28.5128 32.9658 28.3994C32.8157 28.2848 32.7217 28.1706 32.6688 28.06C32.6153 27.9448 32.5814 27.7817 32.5814 27.5584C32.5814 27.2776 32.6639 27.0886 32.8042 26.9575C32.9468 26.8243 33.1584 26.7426 33.4723 26.7426C33.8788 26.7426 34.3062 26.853 34.7572 27.0848L35.0265 27.2232L35.1115 26.9327L35.3222 26.2124L35.3791 26.0176L35.2002 25.9218C34.6771 25.6419 34.1049 25.5029 33.4882 25.5029C32.8824 25.5029 32.3706 25.6821 31.979 26.0596C31.5851 26.4393 31.3977 26.9452 31.3977 27.5486C31.3977 28.1068 31.521 28.5854 31.7897 28.9636L31.7897 28.9636L31.7905 28.9647C32.0595 29.3389 32.4905 29.6429 33.0539 29.8897L33.0543 29.8898C33.4362 30.0564 33.7053 30.1992 33.8726 30.3174L33.8739 30.3183C34.0407 30.4346 34.1428 30.5512 34.1987 30.6631L34.1987 30.6631L34.2012 30.6679C34.2583 30.7762 34.2956 30.9334 34.2956 31.1547C34.2956 31.4729 34.2008 31.6924 34.0346 31.8465C33.87 31.996 33.602 32.0921 33.1861 32.0921C32.9323 32.0921 32.6747 32.0593 32.4128 31.9927C32.1489 31.9257 31.9073 31.8348 31.6869 31.721L31.3221 31.5324V31.9431V32.7412V32.8844L31.4458 32.9569C31.8716 33.2064 32.4529 33.3172 33.1622 33.3172C33.8456 33.3172 34.4163 33.1277 34.8444 32.7234C35.2764 32.3154 35.4793 31.755 35.4793 31.0768C35.4793 30.551 35.3544 30.0981 35.0833 29.7392C34.8166 29.3826 34.3505 29.0758 33.7273 28.8038L33.6273 29.0329ZM33.6273 29.0329C34.2368 29.2989 34.6555 29.5844 34.8835 29.8894L32.4427 28.1667C32.5169 28.3224 32.6415 28.4668 32.8164 28.5998C32.9939 28.7296 33.2642 28.8739 33.6273 29.0329ZM34.0169 30.1133C33.8287 29.9802 33.5412 29.8294 33.1543 29.6607C32.6136 29.4238 32.2267 29.1432 31.9935 28.8188C31.763 28.4944 31.6477 28.071 31.6477 27.5486C31.6477 27.0004 31.816 26.564 32.1525 26.2396C32.4891 25.9151 32.9343 25.7529 33.4882 25.7529C34.0659 25.7529 34.5972 25.8827 35.0822 26.1422L34.0169 30.1133Z" fill="white" stroke="white" stroke-width="0.5"/>
<path d="M46.833 38.3668L38.3929 47.0811" stroke="white" stroke-width="2" stroke-miterlimit="10"/>
<path d="M38.2544 38.227L46.9718 47.2242" stroke="white" stroke-width="2" stroke-miterlimit="10"/>
<path fill-rule="evenodd" clip-rule="evenodd" d="M42.6124 43.1738L46.7475 47.4416L47.1963 47.0067L43.0474 42.7247L47.0576 38.5842L46.6087 38.1493L42.6123 42.2756L38.4789 38.0095L38.03 38.4444L42.1772 42.7247L38.1686 46.8636L38.6176 47.2984L42.6124 43.1738Z" fill="white"/>
</svg>
