<svg width="62" height="62" viewBox="0 0 62 62" fill="none" xmlns="http://www.w3.org/2000/svg">
<circle cx="31" cy="31" r="31" fill="#1F78AD"/>
<path d="M45.7569 33.7764C45.7569 36.2868 43.7371 37.8673 41.2456 37.8673C38.7541 37.8673 37.1854 36.2868 37.1854 33.7764C37.1854 31.266 39.2052 29.2309 41.6967 29.2309C44.1882 29.2309 45.7569 31.266 45.7569 33.7764Z" fill="white"/>
<path d="M40.7945 37.9128C43.5657 37.9128 45.8058 35.6503 45.8058 32.8673C45.8058 30.0843 43.5657 27.8218 40.7945 27.8218C38.0233 27.8218 35.7832 30.0843 35.7832 32.8673C35.7832 35.6503 38.0233 37.9128 40.7945 37.9128Z" stroke="white"/>
<line x1="23.4993" y1="20.2991" x2="28.3151" y2="20.2991" stroke="white" stroke-width="1.5" stroke-linecap="round"/>
<line x1="30.7174" y1="20.2991" x2="31.9242" y2="20.2991" stroke="white" stroke-width="1.5" stroke-linecap="round"/>
<line x1="34.3264" y1="20.2991" x2="38.24" y2="20.2991" stroke="white" stroke-width="1.5" stroke-linecap="round"/>
<line x1="23.4993" y1="23.0264" x2="25.6083" y2="23.0264" stroke="white" stroke-width="1.5" stroke-linecap="round"/>
<line x1="28.0106" y1="23.0264" x2="32.8264" y2="23.0264" stroke="white" stroke-width="1.5" stroke-linecap="round"/>
<line x1="35.2286" y1="23.0264" x2="38.2399" y2="23.0264" stroke="white" stroke-width="1.5" stroke-linecap="round"/>
<line x1="0.75" y1="-0.75" x2="8.21577" y2="-0.75" transform="matrix(0.704434 -0.70977 0.704434 0.70977 24.5538 36.5037)" stroke="white" stroke-width="1.5" stroke-linecap="round"/>
<path d="M24.5539 32.4582C25.024 32.4582 25.3868 32.1704 25.6088 31.8347C25.8335 31.4952 25.9561 31.0553 25.9561 30.5946C25.9561 30.1338 25.8335 29.6939 25.6088 29.3544C25.3868 29.0188 25.024 28.7309 24.5539 28.7309C24.0838 28.7309 23.721 29.0188 23.4989 29.3544C23.2743 29.6939 23.1516 30.1338 23.1516 30.5946C23.1516 31.0553 23.2743 31.4952 23.4989 31.8347C23.721 32.1704 24.0838 32.4582 24.5539 32.4582Z" stroke="white"/>
<path d="M29.9673 37.0037C30.4374 37.0037 30.8002 36.7158 31.0223 36.3802C31.2469 36.0407 31.3696 35.6008 31.3696 35.14C31.3696 34.6793 31.2469 34.2394 31.0223 33.8999C30.8002 33.5643 30.4374 33.2764 29.9673 33.2764C29.4972 33.2764 29.1344 33.5643 28.9123 33.8999C28.6877 34.2394 28.5651 34.6793 28.5651 35.14C28.5651 35.6008 28.6877 36.0407 28.9123 36.3802C29.1344 36.7158 29.4972 37.0037 29.9673 37.0037Z" stroke="white"/>
<path d="M43.5013 41.9582V42.5946C43.5013 44.2514 42.1581 45.5946 40.5013 45.5946H23.0426C21.3858 45.5946 20.0426 44.2514 20.0426 42.5946V20.14" stroke="white" stroke-width="1.5" stroke-linecap="round"/>
<path d="M22.7493 45.5946V45.5946C24.2442 45.5946 25.456 44.3827 25.456 42.8878V41.0491" stroke="white" stroke-width="1.5" stroke-linecap="round"/>
<path d="M25.5327 41.0491H43.501V43.147" stroke="white" stroke-width="1.5" stroke-linecap="round"/>
<path d="M20.0425 42.8673V18.3218M41.6967 25.5946V18.5946C41.6967 16.9377 40.3535 15.5946 38.6967 15.5946H18.238" stroke="white" stroke-width="1.5" stroke-linecap="round"/>
<path d="M20.0426 40.14V17.7374C20.0426 16.554 19.0832 15.5946 17.8997 15.5946V15.5946C16.7162 15.5946 15.7568 16.554 15.7568 17.7374V19.2309" stroke="white" stroke-width="1.5" stroke-linecap="round"/>
</svg>
