<svg width="12" height="12" viewBox="0 0 12 12" fill="none" xmlns="http://www.w3.org/2000/svg">
<path fill-rule="evenodd" clip-rule="evenodd" d="M6.44428 0.288551L6.17959 0.0078125L5.90651 0.280404L0.0779362 6.09859L0.607793 6.62939L1.33932 5.89916V11.4549V11.8299H1.71432H4.82061H5.19738L5.19561 11.4531L5.17681 7.46622H7.16166L7.09594 11.4487L7.08965 11.8299H7.47089H10.6286H11.0036V11.4549V6.21747L11.3843 6.62124L11.93 6.10673L6.44428 0.288551ZM10.2536 5.42202L6.16329 1.0838L1.96656 5.27304H2.08932V11.0799H4.44384L4.42504 7.09299L4.42327 6.71622H4.80004H7.5429H7.92414L7.91785 7.09741L7.85213 11.0799H10.2536V5.42202Z" fill="#333D47"/>
</svg>
