<svg width="12" height="12" viewBox="0 0 12 12" fill="none" xmlns="http://www.w3.org/2000/svg">
<path fill-rule="evenodd" clip-rule="evenodd" d="M4.64886 0.275713L4.47367 0.138672L4.26941 0.226693C4.04371 0.323952 3.90246 0.384731 3.76117 0.445532C3.61983 0.506348 3.47845 0.567187 3.25257 0.664523L3.05515 0.749596L3.0288 0.962947L2.87899 2.17601C2.81889 2.24317 2.76323 2.30547 2.70769 2.36766L2.70762 2.36773C2.65283 2.42907 2.59815 2.49028 2.53929 2.55605L0.923944 2.90962L0.721456 2.95394L0.651274 3.14897C0.588985 3.32207 0.543116 3.44891 0.500851 3.56578C0.434386 3.74957 0.376833 3.90872 0.278354 4.18438L0.210938 4.37309L0.330355 4.53401L1.24808 5.77069V5.77153V5.77311V5.77469V5.77627V5.77784V5.77942V5.78099V5.78256V5.78414V5.78571V5.78727V5.78884V5.79041V5.79197V5.79353V5.79509V5.79665V5.79821V5.79977V5.80133V5.80288V5.80444V5.80599V5.80754V5.80909V5.81064V5.81219V5.81374V5.81528V5.81683V5.81837V5.81991V5.82145V5.82299V5.82453V5.82607V5.8276V5.82914V5.83067V5.83221V5.83374V5.83527V5.8368V5.83833V5.83986V5.84138V5.84291V5.84443V5.84596V5.84748V5.849V5.85052V5.85204V5.85356V5.85508V5.85659V5.85811V5.85962V5.86114V5.86265V5.86416V5.86567V5.86718V5.86869V5.8702V5.87171V5.87322V5.87472V5.87623V5.87773V5.87923V5.88073V5.88224V5.88374V5.88524V5.88674V5.88823V5.88973V5.89123V5.89272V5.89422V5.89571V5.89721V5.8987V5.90019V5.90168V5.90317V5.90466V5.90615V5.90764V5.90913V5.91062V5.9121V5.91359V5.91507V5.91656V5.91804V5.91952V5.92101V5.92249V5.92397V5.92545V5.92693V5.92841V5.92989V5.93137V5.93285V5.93432V5.9358V5.93728V5.93875V5.94023V5.9417V5.94318V5.94465V5.94612V5.9476V5.94907V5.95054V5.95201V5.95348V5.95495V5.95642V5.95789V5.95936V5.96083V5.9623V5.96377V5.96523V5.9667V5.96817V5.96963V5.9711V5.97257V5.97403V5.9755V5.97696V5.97843V5.97989V5.98135V5.98282V5.98428V5.98574V5.98721V5.98867V5.99013V5.99159V5.99305V5.99452V5.99598V5.99744V5.9989V6.00036V6.00182V6.00328V6.00474V6.0062V6.00766V6.00912V6.01058V6.01204V6.0135V6.01496V6.01642V6.01788V6.01934V6.02079V6.02225V6.02371V6.02517V6.02663V6.02809V6.02955V6.031V6.03246V6.03392V6.03538V6.03684V6.0383V6.03975V6.04121V6.04267V6.04413V6.04559V6.04705V6.04851V6.04997V6.05142V6.05288V6.05434V6.0558V6.05726V6.05872V6.06018V6.06164V6.0631V6.06456V6.06602V6.06748V6.06894V6.0704V6.07186V6.07332V6.07478V6.07625V6.07771V6.07917V6.08063V6.0821V6.08356V6.08502V6.08648V6.08795V6.08941V6.09088V6.09234V6.09381V6.09527V6.09674V6.0982V6.09967V6.10114V6.1026V6.10407V6.10554V6.107V6.10847V6.10994V6.11141V6.11288V6.11435V6.11582V6.11729V6.11876V6.12024V6.12171V6.12318V6.12465V6.12613V6.1276V6.12908V6.13055V6.13203V6.13351V6.13498V6.13646V6.13794V6.13942V6.1409V6.14238V6.14386V6.14534V6.14682V6.1483V6.14978V6.15127V6.15275V6.15423V6.15572V6.15721V6.15869V6.16018V6.16167V6.16316V6.16465V6.16614V6.16763V6.16912V6.17061V6.1721V6.1736V6.17509V6.17659V6.17808V6.17958V6.18108V6.18258V6.18408V6.18558V6.18708V6.18858V6.19008V6.19158V6.19309V6.19459V6.1961V6.19761V6.19911V6.20062V6.20213V6.20364V6.20515V6.20667V6.20818V6.20969V6.21121V6.21272V6.21424V6.21576V6.21728V6.2188V6.22032V6.22184V6.22336V6.22489V6.22641V6.22794V6.22947V6.23099V6.23252V6.23405V6.23558V6.23712V6.23865V6.24018V6.24172V6.24326V6.24479V6.24633V6.24787V6.24942V6.25096V6.2525V6.25405V6.25559V6.25714V6.25869V6.26024V6.26179V6.26334V6.26489V6.26645V6.268V6.26956V6.27112V6.27268V6.27424V6.2758V6.27736V6.27893V6.28049V6.28206V6.28363V6.2852V6.28677V6.28834V6.28992V6.29149V6.29307V6.29465V6.29623V6.29781V6.29939V6.30097V6.30256V6.30414V6.30573V6.30732V6.30891V6.3105V6.3121V6.31369V6.31405L0.488372 7.33663L0.353698 7.5179L0.450929 7.72172C0.565873 7.96268 0.632765 8.10411 0.699773 8.2458L0.699868 8.246C0.767041 8.38803 0.834354 8.53035 0.949882 8.77253L1.05037 8.98319L1.28376 8.98604L2.46474 9.00049C2.53807 9.06923 2.6039 9.13129 2.67004 9.19365L2.67037 9.19397L2.67052 9.19411C2.73762 9.25737 2.80506 9.32096 2.88069 9.39184L3.03727 10.9703L3.05969 11.1962L3.27034 11.2811C3.51274 11.3787 3.65628 11.4357 3.79938 11.4926L3.79941 11.4926L3.79948 11.4926C3.94214 11.5493 4.08438 11.6058 4.32509 11.7027L4.5438 11.7908L4.71797 11.6319L5.74425 10.6953H5.74537H5.74707H5.74876H5.75046H5.75215H5.75384H5.75553H5.75721H5.7589H5.76058H5.76226H5.76394H5.76562H5.76729H5.76897H5.77064H5.77231H5.77398H5.77565H5.77731H5.77898H5.78064H5.7823H5.78396H5.78561H5.78727H5.78892H5.79058H5.79223H5.79388H5.79552H5.79717H5.79882H5.80046H5.8021H5.80374H5.80538H5.80702H5.80865H5.81029H5.81192H5.81355H5.81518H5.81681H5.81844H5.82006H5.82169H5.82331H5.82493H5.82655H5.82817H5.82979H5.8314H5.83302H5.83463H5.83624H5.83786H5.83947H5.84107H5.84268H5.84429H5.84589H5.8475H5.8491H5.8507H5.8523H5.8539H5.8555H5.85709H5.85869H5.86028H5.86188H5.86347H5.86506H5.86665H5.86824H5.86983H5.87141H5.873H5.87458H5.87617H5.87775H5.87933H5.88091H5.88249H5.88407H5.88565H5.88723H5.8888H5.89038H5.89195H5.89352H5.8951H5.89667H5.89824H5.89981H5.90138H5.90294H5.90451H5.90608H5.90764H5.90921H5.91077H5.91234H5.9139H5.91546H5.91702H5.91858H5.92014H5.9217H5.92326H5.92481H5.92637H5.92793H5.92948H5.93104H5.93259H5.93414H5.9357H5.93725H5.9388H5.94035H5.9419H5.94345H5.945H5.94655H5.9481H5.94965H5.9512H5.95274H5.95429H5.95583H5.95738H5.95892H5.96047H5.96201H5.96356H5.9651H5.96664H5.96819H5.96973H5.97127H5.97281H5.97435H5.97589H5.97743H5.97897H5.98051H5.98205H5.98359H5.98513H5.98667H5.98821H5.98975H5.99128H5.99282H5.99436H5.9959H5.99743H5.99897H6.00051H6.00205H6.00358H6.00512H6.00665H6.00819H6.00973H6.01126H6.0128H6.01434H6.01587H6.01741H6.01894H6.02048H6.02201H6.02355H6.02509H6.02662H6.02816H6.02969H6.03123H6.03277H6.0343H6.03584H6.03737H6.03891H6.04045H6.04198H6.04352H6.04506H6.04659H6.04813H6.04967H6.05121H6.05274H6.05428H6.05582H6.05736H6.0589H6.06044H6.06198H6.06352H6.06506H6.0666H6.06814H6.06968H6.07122H6.07276H6.0743H6.07584H6.07739H6.07893H6.08047H6.08202H6.08356H6.0851H6.08665H6.08819H6.08974H6.09129H6.09283H6.09438H6.09593H6.09748H6.09903H6.10058H6.10213H6.10368H6.10523H6.10678H6.10833H6.10988H6.11144H6.11299H6.11455H6.1161H6.11766H6.11922H6.12077H6.12233H6.12389H6.12545H6.12701H6.12857H6.13013H6.13169H6.13326H6.13482H6.13639H6.13795H6.13952H6.14108H6.14265H6.14422H6.14579H6.14736H6.14893H6.15051H6.15208H6.15365H6.15523H6.1568H6.15838H6.15996H6.16154H6.16312H6.1647H6.16628H6.16786H6.16945H6.17103H6.17262H6.1742H6.17579H6.17738H6.17897H6.18056H6.18215H6.18375H6.18534H6.18694H6.18853H6.19013H6.19173H6.19333H6.19493H6.19653H6.19814H6.19974H6.20135H6.20295H6.20456H6.20617H6.20778H6.2094H6.21101H6.21262H6.21424H6.21586H6.21748H6.2191H6.22072H6.22234H6.22397H6.22559H6.22722H6.22885H6.23048H6.23211H6.23374H6.23538H6.23701H6.23865H6.24029H6.24193H6.24357H6.24521H6.24686H6.2485H6.25015H6.2518H6.25345H6.25511H6.25676H6.25841H6.26007H6.26173H6.26339H6.26505H6.26672H6.26838H6.27005H6.27172H6.27339H6.27506H6.27674H6.27841H6.28009H6.28177H6.28345H6.28513H6.28682H6.2885H6.29019H6.29188H6.29357H6.29527H6.29696H6.29866H6.29967L7.33542 11.6415L7.5078 11.7989L7.72517 11.7137C7.94072 11.6293 8.07685 11.5753 8.2038 11.525L8.20396 11.525C8.3636 11.4617 8.50876 11.4042 8.77912 11.2989L8.99111 11.2164L9.01585 10.9902L9.16287 9.64613L9.35504 9.44876L9.54188 9.25687L10.9473 9.09385L11.1652 9.06859L11.25 8.86634C11.446 8.39875 11.4936 8.28456 11.6866 7.81677L11.7674 7.62071L11.6411 7.45038L10.796 6.31097V6.31008V6.3085V6.30692V6.30534V6.30377V6.30219V6.30062V6.29905V6.29748V6.29591V6.29434V6.29277V6.29121V6.28964V6.28808V6.28652V6.28496V6.2834V6.28184V6.28028V6.27873V6.27718V6.27562V6.27407V6.27252V6.27097V6.26942V6.26788V6.26633V6.26479V6.26324V6.2617V6.26016V6.25862V6.25708V6.25554V6.25401V6.25247V6.25094V6.24941V6.24787V6.24634V6.24481V6.24328V6.24176V6.24023V6.2387V6.23718V6.23566V6.23413V6.23261V6.23109V6.22957V6.22805V6.22654V6.22502V6.2235V6.22199V6.22047V6.21896V6.21745V6.21594V6.21443V6.21292V6.21141V6.2099V6.2084V6.20689V6.20539V6.20388V6.20238V6.20088V6.19938V6.19788V6.19638V6.19488V6.19338V6.19188V6.19038V6.18889V6.18739V6.1859V6.18441V6.18291V6.18142V6.17993V6.17844V6.17695V6.17546V6.17397V6.17248V6.171V6.16951V6.16802V6.16654V6.16505V6.16357V6.16209V6.1606V6.15912V6.15764V6.15616V6.15468V6.1532V6.15172V6.15024V6.14877V6.14729V6.14581V6.14434V6.14286V6.14138V6.13991V6.13844V6.13696V6.13549V6.13402V6.13254V6.13107V6.1296V6.12813V6.12666V6.12519V6.12372V6.12225V6.12078V6.11931V6.11785V6.11638V6.11491V6.11344V6.11198V6.11051V6.10905V6.10758V6.10612V6.10465V6.10319V6.10172V6.10026V6.0988V6.09733V6.09587V6.09441V6.09294V6.09148V6.09002V6.08856V6.0871V6.08563V6.08417V6.08271V6.08125V6.07979V6.07833V6.07687V6.07541V6.07395V6.07249V6.07103V6.06957V6.06811V6.06665V6.0652V6.06374V6.06228V6.06082V6.05936V6.0579V6.05644V6.05498V6.05353V6.05207V6.05061V6.04915V6.04769V6.04623V6.04477V6.04332V6.04186V6.0404V6.03894V6.03748V6.03602V6.03456V6.03311V6.03165V6.03019V6.02873V6.02727V6.02581V6.02435V6.02289V6.02143V6.01997V6.01851V6.01705V6.01559V6.01413V6.01267V6.01121V6.00975V6.00829V6.00683V6.00537V6.0039V6.00244V6.00098V5.99952V5.99805V5.99659V5.99513V5.99366V5.9922V5.99074V5.98927V5.98781V5.98634V5.98488V5.98341V5.98194V5.98048V5.97901V5.97754V5.97608V5.97461V5.97314V5.97167V5.9702V5.96873V5.96726V5.96579V5.96432V5.96285V5.96138V5.9599V5.95843V5.95696V5.95548V5.95401V5.95253V5.95106V5.94958V5.94811V5.94663V5.94515V5.94367V5.9422V5.94072V5.93924V5.93776V5.93628V5.93479V5.93331V5.93183V5.93035V5.92886V5.92738V5.92589V5.92441V5.92292V5.92143V5.91994V5.91846V5.91697V5.91548V5.91398V5.91249V5.911V5.90951V5.90801V5.90652V5.90502V5.90353V5.90203V5.90053V5.89904V5.89754V5.89604V5.89454V5.89303V5.89153V5.89003V5.88852V5.88702V5.88551V5.88401V5.8825V5.88099V5.87948V5.87797V5.87646V5.87495V5.87343V5.87192V5.8704V5.86889V5.86737V5.86585V5.86433V5.86281V5.86129V5.85977V5.85825V5.85672V5.8552V5.85367V5.85215V5.85062V5.84909V5.84756V5.84603V5.8445V5.84296V5.84143V5.83989V5.83836V5.83682V5.83528V5.83374V5.8322V5.83065V5.82911V5.82757V5.82602V5.82447V5.82292V5.82138V5.81982V5.81827V5.81672V5.81517V5.81361V5.81205V5.81049V5.80893V5.80737V5.80581V5.80425V5.80268V5.80112V5.79955V5.79798V5.79641V5.79484V5.79327V5.7917V5.79012V5.78854V5.78697V5.78539V5.78381V5.78222V5.78064V5.77905V5.77747V5.77588V5.77429V5.7727V5.77111V5.76951V5.76792V5.7674L11.6411 4.62799L11.7683 4.4565L11.6857 4.2596C11.4902 3.79313 11.4431 3.6803 11.2508 3.21404L11.1666 3.00996L10.9473 2.98452L9.54188 2.8215L9.35267 2.62717L9.16278 2.43215L9.0032 0.980896L8.9796 0.766249L8.78211 0.678919C8.3268 0.477588 8.21557 0.428633 7.76004 0.230449L7.55525 0.141355L7.37936 0.278968L6.27484 1.14313C6.0947 1.14323 5.9415 1.14382 5.76262 1.14695L4.64886 0.275713ZM3.60893 2.3846L3.7468 1.26825L4.05729 1.1346L4.05762 1.13446L4.36193 1.00347L5.4057 1.81996L5.51133 1.90259L5.6454 1.89949C5.92167 1.89312 6.11674 1.8931 6.40414 1.8931H6.5334L6.63521 1.81345L7.66557 1.00731C7.90383 1.11114 8.04085 1.17132 8.2813 1.27755L8.43138 2.64233L8.44547 2.77054L8.53545 2.86295L8.81531 3.15038L9.09755 3.44025L9.19057 3.53578L9.32302 3.55114L10.6417 3.7041C10.7459 3.95626 10.8051 4.0985 10.9115 4.35264L10.1198 5.42011L10.046 5.51961V5.64351V5.64524V5.64696V5.64869V5.65041V5.65213V5.65385V5.65556V5.65728V5.65899V5.6607V5.66241V5.66411V5.66582V5.66752V5.66922V5.67092V5.67261V5.67431V5.676V5.67769V5.67938V5.68106V5.68275V5.68443V5.68611V5.68779V5.68947V5.69114V5.69282V5.69449V5.69616V5.69782V5.69949V5.70115V5.70282V5.70448V5.70614V5.70779V5.70945V5.7111V5.71275V5.7144V5.71605V5.7177V5.71934V5.72099V5.72263V5.72427V5.7259V5.72754V5.72917V5.73081V5.73244V5.73407V5.7357V5.73732V5.73895V5.74057V5.74219V5.74381V5.74543V5.74705V5.74866V5.75027V5.75189V5.7535V5.7551V5.75671V5.75832V5.75992V5.76152V5.76313V5.76473V5.76632V5.76792V5.76951V5.77111V5.7727V5.77429V5.77588V5.77747V5.77905V5.78064V5.78222V5.78381V5.78539V5.78697V5.78854V5.79012V5.7917V5.79327V5.79484V5.79641V5.79798V5.79955V5.80112V5.80268V5.80425V5.80581V5.80737V5.80893V5.81049V5.81205V5.81361V5.81517V5.81672V5.81827V5.81982V5.82138V5.82292V5.82447V5.82602V5.82757V5.82911V5.83065V5.8322V5.83374V5.83528V5.83682V5.83836V5.83989V5.84143V5.84296V5.8445V5.84603V5.84756V5.84909V5.85062V5.85215V5.85367V5.8552V5.85672V5.85825V5.85977V5.86129V5.86281V5.86433V5.86585V5.86737V5.86889V5.8704V5.87192V5.87343V5.87495V5.87646V5.87797V5.87948V5.88099V5.8825V5.88401V5.88551V5.88702V5.88852V5.89003V5.89153V5.89303V5.89454V5.89604V5.89754V5.89904V5.90053V5.90203V5.90353V5.90502V5.90652V5.90801V5.90951V5.911V5.91249V5.91398V5.91548V5.91697V5.91846V5.91994V5.92143V5.92292V5.92441V5.92589V5.92738V5.92886V5.93035V5.93183V5.93331V5.93479V5.93628V5.93776V5.93924V5.94072V5.9422V5.94367V5.94515V5.94663V5.94811V5.94958V5.95106V5.95253V5.95401V5.95548V5.95696V5.95843V5.9599V5.96138V5.96285V5.96432V5.96579V5.96726V5.96873V5.9702V5.97167V5.97314V5.97461V5.97608V5.97754V5.97901V5.98048V5.98194V5.98341V5.98488V5.98634V5.98781V5.98927V5.99074V5.9922V5.99366V5.99513V5.99659V5.99805V5.99952V6.00098V6.00244V6.0039V6.00537V6.00683V6.00829V6.00975V6.01121V6.01267V6.01413V6.01559V6.01705V6.01851V6.01997V6.02143V6.02289V6.02435V6.02581V6.02727V6.02873V6.03019V6.03165V6.03311V6.03456V6.03602V6.03748V6.03894V6.0404V6.04186V6.04332V6.04477V6.04623V6.04769V6.04915V6.05061V6.05207V6.05353V6.05498V6.05644V6.0579V6.05936V6.06082V6.06228V6.06374V6.0652V6.06665V6.06811V6.06957V6.07103V6.07249V6.07395V6.07541V6.07687V6.07833V6.07979V6.08125V6.08271V6.08417V6.08563V6.0871V6.08856V6.09002V6.09148V6.09294V6.09441V6.09587V6.09733V6.0988V6.10026V6.10172V6.10319V6.10465V6.10612V6.10758V6.10905V6.11051V6.11198V6.11344V6.11491V6.11638V6.11785V6.11931V6.12078V6.12225V6.12372V6.12519V6.12666V6.12813V6.1296V6.13107V6.13254V6.13402V6.13549V6.13696V6.13844V6.13991V6.14138V6.14286V6.14434V6.14581V6.14729V6.14877V6.15024V6.15172V6.1532V6.15468V6.15616V6.15764V6.15912V6.1606V6.16209V6.16357V6.16505V6.16654V6.16802V6.16951V6.171V6.17248V6.17397V6.17546V6.17695V6.17844V6.17993V6.18142V6.18291V6.18441V6.1859V6.18739V6.18889V6.19038V6.19188V6.19338V6.19488V6.19638V6.19788V6.19938V6.20088V6.20238V6.20388V6.20539V6.20689V6.2084V6.2099V6.21141V6.21292V6.21443V6.21594V6.21745V6.21896V6.22047V6.22199V6.2235V6.22502V6.22654V6.22805V6.22957V6.23109V6.23261V6.23413V6.23566V6.23718V6.2387V6.24023V6.24176V6.24328V6.24481V6.24634V6.24787V6.24941V6.25094V6.25247V6.25401V6.25554V6.25708V6.25862V6.26016V6.2617V6.26324V6.26479V6.26633V6.26788V6.26942V6.27097V6.27252V6.27407V6.27562V6.27718V6.27873V6.28028V6.28184V6.2834V6.28496V6.28652V6.28808V6.28964V6.29121V6.29277V6.29434V6.29591V6.29748V6.29905V6.30062V6.30219V6.30377V6.30534V6.30692V6.3085V6.31008V6.31166V6.31325V6.31483V6.31642V6.318V6.31959V6.32118V6.32277V6.32437V6.32596V6.32756V6.32916V6.33076V6.33236V6.33396V6.33556V6.33717V6.33877V6.34038V6.34199V6.3436V6.34522V6.34683V6.34845V6.35006V6.35168V6.3533V6.35493V6.35655V6.35818V6.3598V6.36143V6.36306V6.3647V6.36633V6.36796V6.3696V6.37124V6.37288V6.37452V6.37617V6.37781V6.37946V6.38111V6.38276V6.38442V6.38607V6.38773V6.38939V6.39105V6.39271V6.39437V6.39604V6.3977V6.39937V6.40104V6.40272V6.40439V6.40607V6.40775V6.40943V6.41111V6.41279V6.41448V6.41617V6.41785V6.41955V6.42124V6.42294V6.42463V6.42633V6.42803V6.42974V6.43144V6.43315V6.43486V6.55875L10.1198 6.65826L10.9123 7.72681C10.8075 7.98062 10.7486 8.12202 10.6431 8.37412L9.32302 8.52722L9.19057 8.54259L9.09755 8.63812L8.81768 8.92556L8.53545 9.21542L8.44539 9.30791L8.43135 9.43625L8.295 10.6828C8.14723 10.7407 8.0389 10.7836 7.92416 10.8291C7.84665 10.8598 7.76621 10.8917 7.66872 10.9301L6.6981 10.0434L6.59067 9.94527H6.44517H6.44329H6.4414H6.43952H6.43764H6.43577H6.4339H6.43203H6.43016H6.4283H6.42643H6.42457H6.42272H6.42086H6.41901H6.41716H6.41532H6.41347H6.41163H6.40979H6.40796H6.40613H6.4043H6.40247H6.40064H6.39882H6.397H6.39518H6.39336H6.39155H6.38974H6.38793H6.38612H6.38432H6.38252H6.38072H6.37892H6.37713H6.37534H6.37355H6.37176H6.36998H6.36819H6.36641H6.36464H6.36286H6.36109H6.35931H6.35755H6.35578H6.35401H6.35225H6.35049H6.34873H6.34698H6.34522H6.34347H6.34172H6.33998H6.33823H6.33649H6.33475H6.33301H6.33127H6.32954H6.32781H6.32608H6.32435H6.32262H6.3209H6.31917H6.31745H6.31573H6.31402H6.3123H6.31059H6.30888H6.30717H6.30547H6.30376H6.30206H6.30036H6.29866H6.29696H6.29527H6.29357H6.29188H6.29019H6.2885H6.28682H6.28513H6.28345H6.28177H6.28009H6.27841H6.27674H6.27506H6.27339H6.27172H6.27005H6.26838H6.26672H6.26505H6.26339H6.26173H6.26007H6.25841H6.25676H6.25511H6.25345H6.2518H6.25015H6.2485H6.24686H6.24521H6.24357H6.24193H6.24029H6.23865H6.23701H6.23538H6.23374H6.23211H6.23048H6.22885H6.22722H6.22559H6.22397H6.22234H6.22072H6.2191H6.21748H6.21586H6.21424H6.21262H6.21101H6.2094H6.20778H6.20617H6.20456H6.20295H6.20135H6.19974H6.19814H6.19653H6.19493H6.19333H6.19173H6.19013H6.18853H6.18694H6.18534H6.18375H6.18215H6.18056H6.17897H6.17738H6.17579H6.1742H6.17262H6.17103H6.16945H6.16786H6.16628H6.1647H6.16312H6.16154H6.15996H6.15838H6.1568H6.15523H6.15365H6.15208H6.15051H6.14893H6.14736H6.14579H6.14422H6.14265H6.14108H6.13952H6.13795H6.13639H6.13482H6.13326H6.13169H6.13013H6.12857H6.12701H6.12545H6.12389H6.12233H6.12077H6.11922H6.11766H6.1161H6.11455H6.11299H6.11144H6.10988H6.10833H6.10678H6.10523H6.10368H6.10213H6.10058H6.09903H6.09748H6.09593H6.09438H6.09283H6.09129H6.08974H6.08819H6.08665H6.0851H6.08356H6.08202H6.08047H6.07893H6.07739H6.07584H6.0743H6.07276H6.07122H6.06968H6.06814H6.0666H6.06506H6.06352H6.06198H6.06044H6.0589H6.05736H6.05582H6.05428H6.05274H6.05121H6.04967H6.04813H6.04659H6.04506H6.04352H6.04198H6.04045H6.03891H6.03737H6.03584H6.0343H6.03277H6.03123H6.02969H6.02816H6.02662H6.02509H6.02355H6.02201H6.02048H6.01894H6.01741H6.01587H6.01434H6.0128H6.01126H6.00973H6.00819H6.00665H6.00512H6.00358H6.00205H6.00051H5.99897H5.99743H5.9959H5.99436H5.99282H5.99128H5.98975H5.98821H5.98667H5.98513H5.98359H5.98205H5.98051H5.97897H5.97743H5.97589H5.97435H5.97281H5.97127H5.96973H5.96819H5.96664H5.9651H5.96356H5.96201H5.96047H5.95892H5.95738H5.95583H5.95429H5.95274H5.9512H5.94965H5.9481H5.94655H5.945H5.94345H5.9419H5.94035H5.9388H5.93725H5.9357H5.93414H5.93259H5.93104H5.92948H5.92793H5.92637H5.92481H5.92326H5.9217H5.92014H5.91858H5.91702H5.91546H5.9139H5.91234H5.91077H5.90921H5.90764H5.90608H5.90451H5.90294H5.90138H5.89981H5.89824H5.89667H5.8951H5.89352H5.89195H5.89038H5.8888H5.88723H5.88565H5.88407H5.88249H5.88091H5.87933H5.87775H5.87617H5.87458H5.873H5.87141H5.86983H5.86824H5.86665H5.86506H5.86347H5.86188H5.86028H5.85869H5.85709H5.8555H5.8539H5.8523H5.8507H5.8491H5.8475H5.84589H5.84429H5.84268H5.84107H5.83947H5.83786H5.83624H5.83463H5.83302H5.8314H5.82979H5.82817H5.82655H5.82493H5.82331H5.82169H5.82006H5.81844H5.81681H5.81518H5.81355H5.81192H5.81029H5.80865H5.80702H5.80538H5.80374H5.8021H5.80046H5.79882H5.79717H5.79552H5.79388H5.79223H5.79058H5.78892H5.78727H5.78561H5.78396H5.7823H5.78064H5.77898H5.77731H5.77565H5.77398H5.77231H5.77064H5.76897H5.76729H5.76562H5.76394H5.76226H5.76058H5.7589H5.75721H5.75553H5.75384H5.75215H5.75046H5.74876H5.74707H5.74537H5.74367H5.74197H5.74027H5.73856H5.73686H5.73515H5.73344H5.73172H5.73001H5.72829H5.72658H5.72486H5.72313H5.72141H5.71968H5.71795H5.71622H5.71449H5.71276H5.71102H5.70928H5.70754H5.7058H5.70405H5.7023H5.70056H5.6988H5.69705H5.6953H5.69354H5.69178H5.69001H5.68825H5.68648H5.68471H5.68294H5.68117H5.67939H5.67762H5.67584H5.67405H5.67227H5.67048H5.66869H5.6669H5.66511H5.66331H5.66151H5.65971H5.6579H5.6561H5.65429H5.65248H5.65067H5.64885H5.64703H5.64521H5.64339H5.64156H5.63973H5.6379H5.63607H5.63423H5.6324H5.63055H5.62871H5.62686H5.62502H5.62317H5.62131H5.61945H5.6176H5.61573H5.61387H5.612H5.61013H5.60826H5.60639H5.60451H5.60263H5.60074H5.59886H5.45347L5.34607 10.0433L4.38637 10.9191C4.26427 10.8702 4.17017 10.8328 4.07626 10.7955L4.07624 10.7955C3.98087 10.7577 3.88569 10.7198 3.76117 10.67L3.61309 9.1773L3.59912 9.03653L3.49566 8.94005C3.3765 8.82894 3.28086 8.73877 3.18455 8.64796L3.18421 8.64764C3.08801 8.55694 2.9911 8.46557 2.8704 8.35303L2.7643 8.2541L2.61925 8.25232L1.52648 8.23896C1.46741 8.11467 1.42267 8.02007 1.37787 7.92534L1.3778 7.9252C1.33201 7.82838 1.28615 7.73141 1.22499 7.60276L1.9241 6.66174L1.99808 6.56216V6.43811V6.43638V6.43465V6.43293V6.4312V6.42948V6.42777V6.42605V6.42434V6.42262V6.42092V6.41921V6.4175V6.4158V6.4141V6.4124V6.4107V6.409V6.40731V6.40561V6.40392V6.40224V6.40055V6.39886V6.39718V6.3955V6.39382V6.39215V6.39047V6.3888V6.38713V6.38546V6.38379V6.38212V6.38046V6.3788V6.37714V6.37548V6.37382V6.37216V6.37051V6.36886V6.36721V6.36556V6.36391V6.36227V6.36063V6.35899V6.35735V6.35571V6.35407V6.35244V6.3508V6.34917V6.34754V6.34592V6.34429V6.34267V6.34104V6.33942V6.3378V6.33618V6.33457V6.33295V6.33134V6.32973V6.32812V6.32651V6.3249V6.32329V6.32169V6.32009V6.31849V6.31689V6.31529V6.31369V6.3121V6.3105V6.30891V6.30732V6.30573V6.30414V6.30256V6.30097V6.29939V6.29781V6.29623V6.29465V6.29307V6.29149V6.28992V6.28834V6.28677V6.2852V6.28363V6.28206V6.28049V6.27893V6.27736V6.2758V6.27424V6.27268V6.27112V6.26956V6.268V6.26645V6.26489V6.26334V6.26179V6.26024V6.25869V6.25714V6.25559V6.25405V6.2525V6.25096V6.24942V6.24787V6.24633V6.24479V6.24326V6.24172V6.24018V6.23865V6.23712V6.23558V6.23405V6.23252V6.23099V6.22947V6.22794V6.22641V6.22489V6.22336V6.22184V6.22032V6.2188V6.21728V6.21576V6.21424V6.21272V6.21121V6.20969V6.20818V6.20667V6.20515V6.20364V6.20213V6.20062V6.19911V6.19761V6.1961V6.19459V6.19309V6.19158V6.19008V6.18858V6.18708V6.18558V6.18408V6.18258V6.18108V6.17958V6.17808V6.17659V6.17509V6.1736V6.1721V6.17061V6.16912V6.16763V6.16614V6.16465V6.16316V6.16167V6.16018V6.15869V6.15721V6.15572V6.15423V6.15275V6.15127V6.14978V6.1483V6.14682V6.14534V6.14386V6.14238V6.1409V6.13942V6.13794V6.13646V6.13498V6.13351V6.13203V6.13055V6.12908V6.1276V6.12613V6.12465V6.12318V6.12171V6.12024V6.11876V6.11729V6.11582V6.11435V6.11288V6.11141V6.10994V6.10847V6.107V6.10554V6.10407V6.1026V6.10114V6.09967V6.0982V6.09674V6.09527V6.09381V6.09234V6.09088V6.08941V6.08795V6.08648V6.08502V6.08356V6.0821V6.08063V6.07917V6.07771V6.07625V6.07478V6.07332V6.07186V6.0704V6.06894V6.06748V6.06602V6.06456V6.0631V6.06164V6.06018V6.05872V6.05726V6.0558V6.05434V6.05288V6.05142V6.04997V6.04851V6.04705V6.04559V6.04413V6.04267V6.04121V6.03975V6.0383V6.03684V6.03538V6.03392V6.03246V6.031V6.02955V6.02809V6.02663V6.02517V6.02371V6.02225V6.02079V6.01934V6.01788V6.01642V6.01496V6.0135V6.01204V6.01058V6.00912V6.00766V6.0062V6.00474V6.00328V6.00182V6.00036V5.9989V5.99744V5.99598V5.99452V5.99305V5.99159V5.99013V5.98867V5.98721V5.98574V5.98428V5.98282V5.98135V5.97989V5.97843V5.97696V5.9755V5.97403V5.97257V5.9711V5.96963V5.96817V5.9667V5.96523V5.96377V5.9623V5.96083V5.95936V5.95789V5.95642V5.95495V5.95348V5.95201V5.95054V5.94907V5.9476V5.94612V5.94465V5.94318V5.9417V5.94023V5.93875V5.93728V5.9358V5.93432V5.93285V5.93137V5.92989V5.92841V5.92693V5.92545V5.92397V5.92249V5.92101V5.91952V5.91804V5.91656V5.91507V5.91359V5.9121V5.91062V5.90913V5.90764V5.90615V5.90466V5.90317V5.90168V5.90019V5.8987V5.89721V5.89571V5.89422V5.89272V5.89123V5.88973V5.88823V5.88674V5.88524V5.88374V5.88224V5.88073V5.87923V5.87773V5.87623V5.87472V5.87322V5.87171V5.8702V5.86869V5.86718V5.86567V5.86416V5.86265V5.86114V5.85962V5.85811V5.85659V5.85508V5.85356V5.85204V5.85052V5.849V5.84748V5.84596V5.84443V5.84291V5.84138V5.83986V5.83833V5.8368V5.83527V5.83374V5.83221V5.83067V5.82914V5.8276V5.82607V5.82453V5.82299V5.82145V5.81991V5.81837V5.81683V5.81528V5.81374V5.81219V5.81064V5.80909V5.80754V5.80599V5.80444V5.80288V5.80133V5.79977V5.79821V5.79665V5.79509V5.79353V5.79197V5.79041V5.78884V5.78727V5.78571V5.78414V5.78256V5.78099V5.77942V5.77784V5.77627V5.77469V5.77311V5.77153V5.76995V5.76837V5.76678V5.7652V5.76361V5.76202V5.76043V5.75884V5.75724V5.75565V5.75405V5.75246V5.75086V5.74926V5.74765V5.74605V5.74445V5.74284V5.74123V5.73962V5.73801V5.7364V5.73478V5.73317V5.73155V5.72993V5.72831V5.72669V5.72506V5.72344V5.72181V5.72018V5.71855V5.71692V5.71528V5.71365V5.71201V5.71037V5.70873V5.70709V5.70544V5.7038V5.70215V5.7005V5.69885V5.6972V5.69554V5.69389V5.69223V5.69057V5.68891V5.68724V5.68558V5.68391V5.68224V5.68057V5.6789V5.67722V5.67555V5.67387V5.67219V5.6705V5.66882V5.66713V5.66545V5.66376V5.66207V5.66037V5.65868V5.65698V5.65528V5.65358V5.65188V5.65017V5.64846V5.64675V5.52281L1.92422 5.42328L1.05214 4.2481C1.11214 4.08078 1.15623 3.95889 1.20548 3.8227L1.20572 3.82203C1.2305 3.75352 1.25659 3.68137 1.28668 3.59797L2.81799 3.26281L2.93624 3.23692L3.01704 3.14679C3.10878 3.04445 3.18786 2.95591 3.26673 2.86763L3.26676 2.8676L3.26695 2.86739L3.26703 2.8673C3.34596 2.77894 3.42469 2.69081 3.51599 2.58895L3.59451 2.50135L3.60893 2.3846ZM4.46124 5.96133C4.46124 5.08423 5.15101 4.39038 5.98098 4.39038C6.81094 4.39038 7.50071 5.08423 7.50071 5.96133C7.50071 6.83843 6.81094 7.53228 5.98098 7.53228C5.15101 7.53228 4.46124 6.83843 4.46124 5.96133ZM5.98098 3.64038C4.71807 3.64038 3.71124 4.689 3.71124 5.96133C3.71124 7.23366 4.71807 8.28228 5.98098 8.28228C7.24388 8.28228 8.25071 7.23366 8.25071 5.96133C8.25071 4.689 7.24388 3.64038 5.98098 3.64038Z" fill="#333D47"/>
</svg>
