<svg width="12" height="13" viewBox="0 0 12 13" fill="none" xmlns="http://www.w3.org/2000/svg">
<path fill-rule="evenodd" clip-rule="evenodd" d="M8.81798 0.958496C7.51128 0.958496 6.43384 1.99103 6.43384 3.28682C6.43384 4.12299 6.88249 4.84954 7.55189 5.25976C6.76556 5.50058 6.10089 6.01359 5.67685 6.68752C5.25022 6.04598 4.50942 5.62512 3.67518 5.62512C2.36849 5.62512 1.29105 6.65766 1.29105 7.95345C1.29105 8.72093 1.66901 9.39605 2.24872 9.81899C0.969859 10.2553 0.0361328 11.3836 0.0361328 12.7468H0.786133C0.786133 11.4691 1.93236 10.3752 3.42486 10.3752C4.91423 10.3752 6.06359 11.4693 6.06359 12.7468H6.81359C6.81359 11.4978 6.02807 10.4461 4.91359 9.94309C5.59827 9.53609 6.05932 8.80109 6.05932 7.95345C6.05932 7.85812 6.05349 7.76421 6.04216 7.67203C6.36913 6.62797 7.3688 5.85849 8.56774 5.85849C10.0338 5.85849 11.2065 7.01075 11.2065 8.41348H11.9565C11.9565 7.03729 11.0986 5.86845 9.88644 5.36845C10.6637 4.98731 11.2021 4.20285 11.2021 3.28682C11.2021 1.99103 10.1247 0.958496 8.81798 0.958496ZM7.18384 3.28682C7.18384 2.42502 7.90544 1.7085 8.81798 1.7085C9.73052 1.7085 10.4521 2.42502 10.4521 3.28682C10.4521 4.14863 9.73052 4.86515 8.81798 4.86515C7.90544 4.86515 7.18384 4.14863 7.18384 3.28682ZM3.67518 6.37512C4.47045 6.37512 5.1207 6.91932 5.27469 7.6296C5.21218 7.88066 5.17902 8.14314 5.17902 8.41348H5.23851C5.03563 9.05597 4.4188 9.53178 3.67518 9.53178C2.76264 9.53178 2.04105 8.81525 2.04105 7.95345C2.04105 7.09165 2.76264 6.37512 3.67518 6.37512Z" fill="#333D47"/>
</svg>
