<svg width="12" height="12" viewBox="0 0 12 12" fill="none" xmlns="http://www.w3.org/2000/svg">
<path fill-rule="evenodd" clip-rule="evenodd" d="M0.843262 0.03125V8.65436C0.843262 9.59168 1.26585 10.4776 1.9987 11.0655C2.47079 11.4439 3.0446 11.6756 3.6454 11.7321C3.68003 11.7409 3.7175 11.7458 3.75786 11.7458H9.86328L9.92688 11.7219C10.4296 11.5337 10.8151 11.2197 11.0469 10.7708C11.2745 10.3299 11.3334 9.79819 11.2643 9.2052L11.2257 8.8736H10.4356V0.03125H0.843262ZM9.68557 8.8736V0.78125H1.59326V8.65436C1.59326 9.36525 1.91342 10.0356 2.46801 10.4805C2.76429 10.7179 3.11364 10.8791 3.48355 10.9518C3.51061 10.9299 3.54138 10.9103 3.57608 10.8939L3.58019 10.892C3.89778 10.7462 4.12839 10.5589 4.27606 10.3171C4.42314 10.0763 4.50965 9.74592 4.47667 9.27478L4.44859 8.8736H9.68557ZM4.91613 10.7081C5.10377 10.4008 5.20904 10.04 5.2298 9.6236H10.5414C10.5452 9.95975 10.4856 10.2231 10.3804 10.4268C10.2547 10.6704 10.0464 10.8626 9.72437 10.9958H4.70235C4.78083 10.9079 4.85248 10.8123 4.91613 10.7081Z" fill="#333D47"/>
</svg>
