<svg width="12" height="12" viewBox="0 0 12 12" fill="none" xmlns="http://www.w3.org/2000/svg">
<path fill-rule="evenodd" clip-rule="evenodd" d="M1.02832 6.18359C1.02832 3.38765 3.29488 1.12109 6.09082 1.12109C8.88676 1.12109 11.1533 3.38765 11.1533 6.18359C11.1533 8.97954 8.88676 11.2461 6.09082 11.2461C3.29488 11.2461 1.02832 8.97954 1.02832 6.18359ZM6.09082 0.371094C2.88067 0.371094 0.27832 2.97344 0.27832 6.18359C0.27832 9.39375 2.88067 11.9961 6.09082 11.9961C9.30098 11.9961 11.9033 9.39375 11.9033 6.18359C11.9033 2.97344 9.30098 0.371094 6.09082 0.371094ZM5.90332 2.99609V6.37109V6.50686L5.99024 6.61116L7.86524 8.86116L8.4414 8.38102L6.65332 6.23532V2.99609H5.90332Z" fill="#333D47"/>
</svg>
