<svg width="12" height="12" viewBox="0 0 12 12" fill="none" xmlns="http://www.w3.org/2000/svg">
<path fill-rule="evenodd" clip-rule="evenodd" d="M3.75 3.73147C3.75 2.32938 4.84784 1.21338 6.17704 1.21338C7.50624 1.21338 8.60408 2.32938 8.60408 3.73147C8.60408 5.13356 7.50624 6.24954 6.17704 6.24954C4.84784 6.24954 3.75 5.13356 3.75 3.73147ZM6.17704 0.463379C4.4112 0.463379 3 1.93795 3 3.73147C3 5.08555 3.80439 6.25782 4.95848 6.75097C2.96539 7.2648 1.5 9.1239 1.5 11.3206H2.25C2.25 9.12216 3.97351 7.36014 6.07397 7.36014C8.17443 7.36014 9.89794 9.12216 9.89794 11.3206H10.6479C10.6479 9.16961 9.24291 7.34232 7.3132 6.78479C8.51122 6.31312 9.35408 5.11755 9.35408 3.73147C9.35408 1.93795 7.94288 0.463379 6.17704 0.463379Z" fill="#333D47"/>
</svg>
